<svg id="Capa_1" data-name="Capa 1" xmlns="http://www.w3.org/2000/svg" viewBox="0 0 1013.59 999.03"><defs><style>.cls-1{fill:#fff;}</style></defs><title>logos_justo</title><path class="cls-1" d="M944,455h0C929,226.53,739,45.88,506.79,45.88c-199.56,0-368,133.42-420.88,315.92h0A437,437,0,0,0,69.58,455h0c-.63,9.63-1,19.33-1,29.11,0,242,196.18,438.2,438.19,438.2S945,726.09,945,484.08C945,474.3,944.64,464.6,944,455ZM506.79,133.1c148.88,0,276.1,92.71,327.11,223.53,10.64,27.3-2.89,58.13-30,69.23a782.37,782.37,0,0,1-297.11,58.22,782.32,782.32,0,0,1-297.1-58.22c-27.11-11.1-40.65-41.93-30-69.23C230.7,225.81,357.92,133.1,506.79,133.1Zm0,701.95c-152.86,0-282.89-97.73-331-234.12C161,559,200.71,518.22,243.1,531.63a872.16,872.16,0,0,0,263.69,40.54,872.28,872.28,0,0,0,263.7-40.54c42.39-13.41,82.13,27.37,67.33,69.3C789.69,737.32,659.66,835.05,506.79,835.05Z"/></svg>
