<?xml version="1.0" encoding="utf-8"?>
<!-- Generator: Adobe Illustrator 23.0.6, SVG Export Plug-In . SVG Version: 6.00 Build 0)  -->
<svg version="1.1" id="Capa_1" xmlns="http://www.w3.org/2000/svg" xmlns:xlink="http://www.w3.org/1999/xlink" x="0px" y="0px"
	 viewBox="0 0 1000 1000" style="enable-background:new 0 0 1000 1000;" xml:space="preserve">
<style type="text/css">
	.st0{fill:#000D22;}
</style>
<path class="st0" d="M900.6,473.3L900.6,473.3C886.9,264,712.8,98.5,500,98.5c-182.8,0-337.2,122.2-385.7,289.5l0,0
	c-8,27.9-13.1,56.5-14.9,85.4l0,0c-0.6,8.8-1,17.7-1,26.7c0,221.8,179.8,401.5,401.5,401.5S901.5,721.8,901.5,500
	C901.5,491,901.3,482.1,900.6,473.3z M500,178.4c136.4,0,253,85,299.7,204.8c9.8,25-2.7,53.2-27.5,63.5
	C685.8,482,593.3,500.1,500,500c-93.3,0.1-185.8-18-272.2-53.3c-24.9-10.1-37.2-38.4-27.5-63.5C247,263.3,363.6,178.4,500,178.4z
	 M500,821.6c-140,0-259.2-89.6-303.3-214.5c-13.6-38.4,22.9-75.8,61.6-63.5c78.2,24.7,159.7,37.2,241.6,37.1
	c81.9,0.1,163.5-12.4,241.6-37.1c38.9-12.3,75.2,25.1,61.7,63.5C759.2,732,640,821.6,500,821.6L500,821.6z"/>
</svg>
